<?xml version="1.0" ?><svg height="42" id="svg3236" version="1.1" width="42" xmlns="http://www.w3.org/2000/svg" xmlns:cc="http://creativecommons.org/ns#" xmlns:dc="http://purl.org/dc/elements/1.1/" xmlns:inkscape="http://www.inkscape.org/namespaces/inkscape" xmlns:rdf="http://www.w3.org/1999/02/22-rdf-syntax-ns#" xmlns:sodipodi="http://sodipodi.sourceforge.net/DTD/sodipodi-0.dtd" xmlns:svg="http://www.w3.org/2000/svg"><defs id="defs3238"/><g id="layer1" transform="translate(0,-1010.3622)"><g id="g3266" transform="translate(-492.08524,657.34812)"><g id="g3522" transform="translate(0.01121744,-0.13412043)"><path d="m 20.875,1.25 c -1.932997,0 -3.5,1.567006 -3.5,3.5 0,1.932994 1.567003,3.5 3.5,3.5 1.932997,0 3.5,-1.567006 3.5,-3.5 0,-1.932994 -1.567003,-3.5 -3.5,-3.5 z m 0,8 c -1.528786,0 -2.874251,0.772214 -3.6875,1.9375 a 1.50015,1.50015 0 0 0 -0.125,0.09375 l -5.03125,2.875 a 1.50015,1.50015 0 0 0 -0.25,2.40625 l 4.4375,4.09375 a 1.50015,1.50015 0 0 0 0.8125,0.4375 l 0.25,3.125 -2.59375,6.625 a 1.50015,1.50015 0 0 0 0,0.03125 l -3.03125,8.03125 a 1.5032517,1.5032517 0 1 0 2.8125,1.0625 L 17.5,31.9375 20.125,25.25 l 1.5,0 2.65625,7.65625 -3,5.9375 a 1.5023582,1.5023582 0 1 0 2.6875,1.34375 L 27.25,33.71875 a 1.50015,1.50015 0 0 0 0.0625,-1.1875 l -2.875,-8.1875 0.25,-2.96875 A 1.5027644,1.5027644 0 0 0 25.3125,21 l 4.96875,-5.1875 a 1.50015,1.50015 0 0 0 -0.5,-2.40625 L 24.625,11.25 c -0.808682,-1.197008 -2.196699,-2 -3.75,-2 z m 4.375,5.53125 1.34375,0.5625 -1.53125,1.59375 0.1875,-2.15625 z m -8.71875,0.25 L 16.6875,17 l -1.375,-1.28125 1.21875,-0.6875 z" id="path3750" style="fill:#1a1a1a;fill-rule:evenodd;stroke:none" transform="translate(492.08524,353.01408)"/></g></g></g></svg>